<svg xmlns="http://www.w3.org/2000/svg" width="17.875" height="33.604" viewBox="0 0 17.875 33.604" fill="none">
  <path d="M 7.569 23.838 C 7.708 23.501 8.094 23.34 8.432 23.479 C 8.769 23.618 8.93 24.004 8.791 24.342 C 8.444 25.184 8.029 27.125 8.322 28.884 C 8.467 29.752 8.777 30.529 9.305 31.113 C 9.823 31.685 10.596 32.123 11.774 32.245 C 13.68 32.444 14.798 31.797 15.466 30.983 C 16.165 30.129 16.426 29.018 16.442 28.262 C 16.45 27.897 16.752 27.608 17.117 27.615 C 17.482 27.623 17.772 27.925 17.764 28.29 C 17.744 29.26 17.421 30.682 16.488 31.821 C 15.523 32.998 13.96 33.803 11.637 33.561 C 10.171 33.408 9.084 32.84 8.325 32.001 C 7.576 31.173 7.19 30.132 7.018 29.101 C 6.678 27.059 7.145 24.869 7.569 23.838 Z M 7.883 13.525 C 7.999 13.179 8.374 12.992 8.72 13.108 C 9.066 13.224 9.253 13.598 9.137 13.945 L 9.137 13.945 L 9.136 13.947 C 9.136 13.949 9.135 13.951 9.134 13.953 C 9.132 13.959 9.13 13.967 9.126 13.977 C 9.119 13.998 9.108 14.028 9.095 14.067 C 9.068 14.145 9.03 14.258 8.981 14.397 C 8.883 14.675 8.745 15.061 8.583 15.49 C 8.263 16.338 7.836 17.395 7.439 18.126 C 6.989 18.953 6.341 19.58 5.669 20.1 C 5.015 20.606 4.265 21.061 3.667 21.465 C 2.395 22.325 1.675 23.037 1.788 24.248 C 1.892 25.357 2.313 26.056 2.942 26.547 C 3.603 27.063 4.548 27.393 5.77 27.627 C 6.129 27.695 6.364 28.042 6.295 28.4 C 6.226 28.759 5.88 28.994 5.522 28.925 C 4.231 28.679 3.038 28.299 2.128 27.589 C 1.188 26.854 0.607 25.81 0.472 24.372 C 0.282 22.343 1.648 21.235 2.927 20.37 C 3.605 19.912 4.248 19.528 4.86 19.054 C 5.456 18.593 5.949 18.098 6.277 17.495 C 6.627 16.851 7.027 15.869 7.346 15.023 C 7.504 14.606 7.638 14.23 7.734 13.959 C 7.781 13.823 7.819 13.714 7.845 13.639 C 7.858 13.602 7.867 13.573 7.874 13.553 C 7.877 13.544 7.88 13.536 7.881 13.531 C 7.882 13.529 7.883 13.527 7.883 13.526 L 7.883 13.525 Z M 2.025 11.908 C 2.304 11.672 2.722 11.708 2.957 11.987 C 3.192 12.266 3.157 12.682 2.878 12.918 C 1.625 13.975 1.288 15.11 1.325 16.089 C 1.364 17.105 1.81 18.005 2.201 18.505 C 2.426 18.793 2.375 19.208 2.088 19.433 C 1.8 19.658 1.385 19.607 1.16 19.319 C 0.633 18.644 0.055 17.484 0.004 16.139 C -0.049 14.757 0.458 13.23 2.025 11.908 Z M 3.666 7.608 C 4.631 5.728 6.917 4.734 10.179 5.375 C 10.537 5.445 10.77 5.793 10.7 6.151 C 10.629 6.509 10.282 6.742 9.924 6.672 C 7.016 6.101 5.447 7.035 4.842 8.212 C 4.212 9.441 4.457 11.242 5.806 12.742 C 6.05 13.013 6.028 13.431 5.756 13.675 C 5.485 13.919 5.067 13.897 4.823 13.626 C 3.199 11.82 2.728 9.436 3.666 7.608 Z M 13.535 0.007 C 15.576 0.13 17.232 1.914 17.863 5.239 C 17.931 5.598 17.695 5.944 17.336 6.012 C 16.978 6.08 16.632 5.844 16.564 5.485 C 15.983 2.421 14.609 1.396 13.455 1.326 C 12.227 1.252 10.751 2.205 9.882 4.096 C 9.73 4.428 9.337 4.573 9.006 4.421 C 8.674 4.268 8.529 3.876 8.681 3.544 C 9.685 1.36 11.569 -0.112 13.535 0.007 Z" fill="currentColor" fill-rule="nonzero"></path>
</svg>